<svg style="color:black" xmlns="http://www.w3.org/2000/svg" xmlns:xlink="http://www.w3.org/1999/xlink" version="1.1" x="0px" y="0px" viewBox="0 0 439.4 170.1" enable-background="new 0 0 439.4 170.1" xml:space="preserve" aria-hidden="true">
	<g id="Västerås_stad_text" fill="currentcolor" stroke="currentcolor">
      <path stroke-width="0.5" stroke-miterlimit="3.8637" d="M416.2,123.7c0,3.8-2.9,2.2-2.9,3.8   c0,0.8,0.8,0.6,1.4,0.6c1.1,0,2.2-0.2,3.3-0.2c1.3,0,3.3,0.2,7.4,0.2c3.8,0,13.1-3.8,13.1-15.9c0-13.1-10.4-13.8-15.1-13.8   c-1.9,0-3.7,0.2-5.5,0.2c-3.5,0-4.2-0.2-4.9-0.2c-0.2,0-0.6,0.3-0.6,0.7c0,1.5,3.8,0.2,3.8,4.4V123.7L416.2,123.7z M420.6,103.9   c0-2.9,0.2-3.9,2.9-3.9c8.9,0,10.6,9.5,10.6,13.5c0,8.7-4,12.9-9.5,12.9c-1.4,0-4-0.3-4-3.1V103.9L420.6,103.9z"></path>
      <path stroke-width="0.5" stroke-miterlimit="3.8637" d="M393.4,115.4c-0.6,0-1.1,0-1.1-0.4c0-0.6,0.2-1,0.4-1.5   l2.7-7.4c0.2-0.5,0.3-0.5,0.4-0.5c0.2,0,0.1,0,0.3,0.3l2.9,7.6c0.2,0.5,0.4,1,0.4,1.5c0,0.4-0.5,0.4-1.1,0.4H393.4L393.4,115.4z    M399.3,117.7c0.9,0,1.1,0.4,2.3,3.7c0.4,1.1,0.6,1.9,0.6,2.8c0,2.6-2.5,2.1-2.5,3.3c0,0.6,0.5,0.5,1.1,0.5c1,0,2.4-0.2,3.9-0.2   c2.4,0,3.3,0.2,4.6,0.2c1,0,1.3,0.1,1.3-0.6c0-1.4-1.9,0.2-3.1-2.7L398,99c-0.5-1.3-0.5-1.3-0.9-1.3c-0.5,0-0.6,0.8-0.9,1.5   l-9.7,25.3c-0.9,2.3-2.7,2.1-2.7,3.1c0,0.5,0.6,0.5,1.1,0.5c1,0,2.1-0.2,3.1-0.2c1.1,0,2.2,0.2,3.3,0.2c0.8,0,1.9,0.3,1.9-0.6   c0-1.1-3.8-0.5-3.8-3.5c0-1,0.5-2.5,0.7-3.3c0.8-2.8,1.6-2.9,2.2-2.9H399.3L399.3,117.7z"></path>
      <path fill-rule="evenodd" clip-rule="evenodd" stroke-width="0.5" stroke-miterlimit="3.8637" d="M371.7,122.5   c0,5-4,3-4,4.6c0,0.9,0.6,0.9,1.2,0.9c1.4,0,2.6-0.2,5-0.2s3.6,0.2,5,0.2c1,0,1.7,0.1,1.7-0.9c0-1.2-4.6,0-4.6-5.1v-18.9   c0-2,0.4-2.2,1.8-2.2h3c4.1-0.2,3,4.5,4.4,4.5c0.9,0,0.5-1.6,0.5-2.1l-0.4-3.8c0-0.4,0-1-0.6-1c-3.3,0-5.7,0.2-10.9,0.2   c-5.2,0-7.6-0.2-10.9-0.2c-0.5,0-0.5,0.6-0.6,1l-0.6,5.5c-0.1,0.5-0.3,1.5,0.5,1.5c1.6,0,0.5-5.5,4.6-5.5h3c1.5,0,1.8,0.2,1.8,2.2   V122.5L371.7,122.5z"></path>
      <path fill-rule="evenodd" clip-rule="evenodd" stroke-width="0.5" stroke-miterlimit="3.8637" d="M344.1,125.7   c0.2,1,0.1,1.3,1,1.6c2.1,0.5,3.9,1.5,6.1,1.5c4.7,0,7.9-3.7,7.9-9.2c0-5.3-2.4-7.1-6.2-9.1c-4.8-2.5-6.7-3-6.7-5.8   c0-2.8,1.6-4.4,4-4.4c6.1,0,6.7,7.8,7.5,7.8c0.8,0,0.9-0.5,0.8-1.4l-0.4-5.6c-0.1-1,0-1.6-0.5-1.6c-0.5,0-1.4,0.7-1.8,0.7   c-1.1,0-2.6-1.6-5.5-1.6c-4.2,0-7,3.5-7,8.3c0,4.4,2.1,6,5.2,7.6c5.7,3,8,3.5,8,7.1c0,3.3-2.1,5.4-4.9,5.4c-4,0-6.2-3.8-7.3-7.8   c-0.1-0.5-0.2-0.9-0.8-0.9c-0.9,0-0.5,1.2-0.4,1.8L344.1,125.7L344.1,125.7z"></path>
      <path fill-rule="evenodd" clip-rule="evenodd" stroke-width="0.5" stroke-miterlimit="3.8637" d="M312.1,125.7   c0.2,1,0.1,1.3,1,1.6c2.1,0.5,3.9,1.5,6.1,1.5c4.7,0,7.9-3.7,7.9-9.2c0-5.3-2.3-7.1-6.2-9.1c-4.8-2.5-6.7-3-6.7-5.8   c0-2.8,1.6-4.4,4-4.4c6.1,0,6.7,7.8,7.5,7.8c0.8,0,0.9-0.5,0.8-1.4l-0.4-5.6c-0.1-1,0-1.6-0.5-1.6c-0.5,0-1.4,0.7-1.8,0.7   c-1.1,0-2.6-1.6-5.5-1.6c-4.2,0-7,3.5-7,8.3c0,4.4,2.1,6,5.2,7.6c5.7,3,8,3.5,8,7.1c0,3.3-2.1,5.4-4.9,5.4c-4,0-6.2-3.8-7.3-7.8   c-0.1-0.5-0.2-0.9-0.8-0.9c-0.9,0-0.5,1.2-0.4,1.8L312.1,125.7L312.1,125.7z"></path>
      <path stroke-width="0.5" stroke-miterlimit="3.8637" d="M292,115.4c-0.6,0-1.1,0-1.1-0.4c0-0.6,0.2-1,0.4-1.5   l2.7-7.4c0.2-0.5,0.3-0.5,0.4-0.5c0.2,0,0.1,0,0.3,0.3l2.9,7.6c0.2,0.5,0.4,1,0.4,1.5c0,0.4-0.5,0.4-1.1,0.4H292L292,115.4z    M298,117.7c0.9,0,1.1,0.4,2.3,3.7c0.4,1.1,0.6,1.9,0.6,2.8c0,2.6-2.5,2.1-2.5,3.3c0,0.6,0.5,0.5,1.1,0.5c1,0,2.4-0.2,3.9-0.2   c2.4,0,3.3,0.2,4.6,0.2c1,0,1.3,0.1,1.3-0.6c0-1.4-1.9,0.2-3.1-2.7L296.6,99c-0.5-1.3-0.5-1.3-0.9-1.3c-0.5,0-0.6,0.8-0.9,1.5   l-9.7,25.3c-0.9,2.3-2.7,2.1-2.7,3.1c0,0.5,0.6,0.5,1.1,0.5c1,0,2.1-0.2,3.1-0.2c1.1,0,2.2,0.2,3.3,0.2c0.7,0,1.9,0.3,1.9-0.6   c0-1.1-3.8-0.5-3.8-3.5c0-1,0.5-2.5,0.8-3.3c0.8-2.8,1.6-2.9,2.2-2.9H298L298,117.7z M295.9,89.4c1.1,0,2,1,2,2.3   c0,1.3-1,2.4-2,2.4c-1.1,0-2-1.1-2-2.4C293.9,90.4,294.8,89.4,295.9,89.4L295.9,89.4z M295.9,96c2,0,3.6-1.9,3.6-4.3   c0-2.3-1.7-4.2-3.6-4.2c-2,0-3.6,1.9-3.6,4.2C292.3,94,293.9,96,295.9,96L295.9,96z"></path>
      <path stroke-width="0.5" stroke-miterlimit="3.8637" d="M264.2,102.7c0-2.5,1.1-2.5,2.4-2.5   c3.6,0,5.6,3.1,5.6,7.2c0,2.5-0.2,4.8-5.6,4.8c-1.1,0-2.4,0-2.4-1V102.7L264.2,102.7z M259.8,122.1c0,5.3-2.9,3.9-2.9,5.2   c0,0.8,0.7,0.7,1.1,0.7c1.8,0,3.6-0.2,5.5-0.2c1.5,0,2.5,0.2,3.1,0.2c0.8,0,1.1-0.3,1.1-0.6c0-1.5-3.5,0.2-3.5-4.3v-7.2   c0-1.5-0.2-1.8,1.7-1.8c1.8,0,2.4,0.4,3.2,2.2l3,6.6c1.1,2.4,2.2,5.1,5.1,5.1c1.4,0,3.8-0.9,3.8-2.2c0-0.3-0.2-0.6-0.5-0.6   c-0.4,0-0.7,0.3-1.1,0.3c-0.3,0-1,0-1.3-0.7c-2.6-5.3-5.6-11.3-5.6-11.6c0-0.4,1-0.8,2.1-1.8c1-1,2.1-2.5,2.1-5.2   c0-1.9-0.7-7.8-8.5-7.8c-2.4,0-4.8,0.2-7.2,0.2c-2.2,0-2.5-0.2-4.2-0.2c-0.4,0-0.8,0.2-0.8,0.6c0,1.5,3.9,0,3.9,4.6V122.1   L259.8,122.1z"></path>
      <path fill-rule="evenodd" clip-rule="evenodd" stroke-width="0.5" stroke-miterlimit="3.8637" d="M241.8,103.3   c0-2.9,0.1-2.9,4.5-2.9c6.9,0,4.1,4.9,5.8,4.9c0.8,0,0.6-1.4,0.6-1.9l-0.1-4.1c0-0.4-0.3-0.8-0.7-0.8c-3.1,0-5.6,0.2-8.1,0.2   c-5.4,0-8-0.2-9.5-0.2c-0.5,0-0.8,0.3-0.8,0.7c0,1.7,4,0.3,4,4.1v19.6c0,5.1-2.7,2.8-2.7,4.8c0,0.2,0.2,0.5,0.7,0.5   c2,0,3.5-0.2,4.6-0.2c1.8,0,3.9,0.2,9.3,0.2c2.9,0,5-3.4,5-6.7c0-0.8-0.3-0.9-0.4-0.9c-1.4,0-0.9,5.5-9.7,5.5   c-2.6,0-2.4-1.5-2.4-4.1v-5.4c0-2.4-0.1-2.9,1.5-2.9h2.6c3.7,0,2.7,4.4,3.8,4.4c0.9,0,0.6-1.5,0.6-2l-0.2-7.5c0-1.1-0.4-1-0.7-1   c-0.7,0-0.8,3.8-3.9,3.8h-2.2c-1.5,0-1.5-0.3-1.5-2.1V103.3L241.8,103.3z"></path>
      <path fill-rule="evenodd" clip-rule="evenodd" stroke-width="0.5" stroke-miterlimit="3.8637" d="M217.2,122.5   c0,5-4,3-4,4.6c0,0.9,0.6,0.9,1.2,0.9c1.4,0,2.6-0.2,5-0.2c2.4,0,3.6,0.2,5,0.2c1,0,1.7,0.1,1.7-0.9c0-1.2-4.6,0-4.6-5.1v-18.9   c0-2,0.4-2.2,1.8-2.2h3c4.1-0.2,3,4.5,4.4,4.5c0.9,0,0.5-1.6,0.5-2.1l-0.4-3.8c0-0.4,0-1-0.6-1c-3.3,0-5.7,0.2-10.9,0.2   c-5.2,0-7.6-0.2-10.9-0.2c-0.5,0-0.5,0.6-0.6,1l-0.6,5.5c-0.1,0.5-0.3,1.5,0.5,1.5c1.6,0,0.5-5.5,4.6-5.5h3c1.5,0,1.8,0.2,1.8,2.2   V122.5L217.2,122.5z"></path>
      <path fill-rule="evenodd" clip-rule="evenodd" stroke-width="0.5" stroke-miterlimit="3.8637" d="M189.7,125.7   c0.2,1,0.1,1.3,1,1.6c2.1,0.5,3.9,1.5,6.1,1.5c4.7,0,7.9-3.7,7.9-9.2c0-5.3-2.4-7.1-6.2-9.1c-4.8-2.5-6.7-3-6.7-5.8   c0-2.8,1.6-4.4,4-4.4c6.1,0,6.7,7.8,7.5,7.8c0.8,0,0.9-0.5,0.8-1.4l-0.4-5.6c-0.1-1,0-1.6-0.5-1.6c-0.5,0-1.4,0.7-1.8,0.7   c-1.1,0-2.6-1.6-5.5-1.6c-4.2,0-7,3.5-7,8.3c0,4.4,2.1,6,5.2,7.6c5.7,3,8,3.5,8,7.1c0,3.3-2.1,5.4-4.9,5.4c-4,0-6.2-3.8-7.3-7.8   c-0.1-0.5-0.2-0.9-0.8-0.9c-0.9,0-0.5,1.2-0.4,1.8L189.7,125.7L189.7,125.7z"></path>
      <path stroke-width="0.5" stroke-miterlimit="3.8637" d="M169,115.5c-0.6,0-1.1,0-1.1-0.4c0-0.6,0.2-1,0.4-1.5   l2.7-7.4c0.2-0.5,0.3-0.5,0.4-0.5c0.2,0,0.1,0,0.3,0.3l2.9,7.6c0.2,0.5,0.4,1,0.4,1.5c0,0.4-0.5,0.4-1.1,0.4H169L169,115.5z    M175,117.8c0.9,0,1.1,0.4,2.3,3.7c0.4,1.1,0.6,1.9,0.6,2.8c0,2.6-2.5,2.1-2.5,3.3c0,0.6,0.5,0.5,1.1,0.5c1,0,2.4-0.2,3.9-0.2   c2.3,0,3.3,0.2,4.6,0.2c1,0,1.3,0.1,1.3-0.6c0-1.4-1.9,0.3-3.1-2.7l-9.6-25.6c-0.5-1.3-0.5-1.3-0.9-1.3c-0.5,0-0.6,0.8-0.9,1.5   l-9.7,25.3c-0.9,2.3-2.7,2.1-2.7,3.1c0,0.5,0.6,0.5,1.1,0.5c1,0,2.1-0.2,3.1-0.2c1.1,0,2.2,0.2,3.3,0.2c0.8,0,1.9,0.3,1.9-0.6   c0-1.1-3.8-0.5-3.8-3.5c0-1,0.5-2.5,0.7-3.3c0.8-2.8,1.6-2.9,2.2-2.9H175L175,117.8z M169.7,90.5c-0.4,0-1.7,1.8-1.7,2.5   c0,0.7,1.3,2.5,1.7,2.5c0.4,0,1.7-1.8,1.7-2.5C171.3,92.3,170.1,90.5,169.7,90.5L169.7,90.5z M176.1,90.5c-0.4,0-1.7,1.8-1.7,2.5   c0,0.7,1.3,2.5,1.7,2.5c0.4,0,1.7-1.8,1.7-2.5C177.8,92.3,176.5,90.5,176.1,90.5L176.1,90.5z"></path>
      <path fill-rule="evenodd" clip-rule="evenodd" stroke-width="0.5" stroke-miterlimit="3.8637" d="M161.2,102.2   c1-2.5,2.4-2.3,2.4-3.2c0-0.7-0.5-0.6-1.2-0.6c-1,0-2,0.2-3,0.2c-1,0-2-0.2-3.1-0.2c-0.4,0-1.5-0.1-1.5,0.7c0,1.5,3.6-0.1,3.6,3.8   c0,0.7-0.1,2.1-1.1,4.9l-4.9,12.7c-0.1,0.3-0.2,0.9-0.5,0.9c-0.2,0-0.4-0.6-0.5-0.9l-4.6-13.5c-0.9-2.6-1.4-4.5-1.4-5.8   c0-1.8,2.1-1.1,2.1-2.3c0-0.7-0.2-0.7-1.3-0.7c-0.6,0-1.6,0.2-3.9,0.2c-1.2,0-2.4-0.2-3.6-0.2c-0.5,0-1.6-0.3-1.6,0.7   c0,0.3,0.5,0.5,0.6,0.6c1.5,0.4,2,0.9,2.6,2.5l8.9,24.4c0.6,1.8,1,2.2,1.4,2.2c0.4,0,0.6-0.3,1-1.3L161.2,102.2L161.2,102.2z"></path>
   </g>
   <g id="Vapnet_1_">
      <g id="Sköld">
         <path id="Vit_bakgrund" fill="#FFFFFF" stroke="#000000" stroke-width="1.4148" stroke-miterlimit="3.8637" d="M3.1,46.4h104.1    v94.9c0,0,0.5,9.3-3.8,13.7c-7.4,7.6-15.6,6.2-15.6,6.2s-23.9,0-26.7,0c-4.8,0-6,4.7-6,4.7s-1.6-4.7-5.4-4.7c-2.8,0-2.8,0-2.8,0    H19.2c0,0-5.6,0.2-11.6-5.7c-5.3-5.2-4.4-14.1-4.4-14.1V46.4L3.1,46.4z"></path>
         <path id="Svart_ram" fill-rule="evenodd" clip-rule="evenodd" d="M108.3,45.8l-0.3,98.9c0.2,1.4-0.3,2.7-0.5,4.1    c-1.1,4-3.7,7.8-7.5,10.2c-2.1,1.2-4.2,2.3-6.7,2.7c-1.1,0.2-2.3,0.2-3.4,0.3l-29.8,0c-1.8,0.2-3.3,1.4-4.1,2.9    c-0.5,0.8-0.7,1.7-0.8,2.6c-0.1,0.4,0,1-0.2,1.4l-0.1-0.1c-0.5-2.2-0.6-4.5-2.7-6c-0.6-0.5-1.4-0.9-2.3-1l-28.5,0.1    c-2.3,0.1-4.8,0.2-6.8-0.6c-5.2-1.3-10.1-6-11.7-11.1c-0.6-1.5-0.9-3.2-1-4.8l0.1-99.7C1.9,45.6,108.3,45.7,108.3,45.8L108.3,45.8    z M106.7,47.3c0,0.8-0.3,90.5-0.3,90.5l-0.1,8.2c-0.5,5.8-5.3,11.3-10.9,13.3c-1.2,0.5-2.5,0.8-3.9,0.9l-28.6,0    c-1.4,0.1-2.8-0.2-4.1,0.2c-1.6,0.5-3.3,1.6-4,3.2c-0.9-1.7-2.6-3.3-4.6-3.4l-31.8,0c-2.1,0-4-0.7-5.9-1.3    c-1.1-0.7-2.3-1.3-3.4-2.2c-1.6-1.3-2.8-2.9-3.7-4.5c-1.1-2.2-2-4.5-2-7.2l0.1-97.8C3.6,47.2,104,47.2,106.7,47.3L106.7,47.3z"></path>
      </g>
      <g id="Rosen">
         <path fill="#E63312" d="M40.8,126.2c0,0.8-0.4,3.2-0.8,4.1c-0.4,0.9-1.6,3.5-2.1,3.9c-0.5,0.4-0.7,1.8-0.5,2.2    c0.3,0.5,0.9,0.4,1.4,0c0.6-0.3,2.6-2.1,3.1-2.4c0.5-0.2,2.4-0.9,3.3-0.1c0.9,0.8,1.3,1.1,1.2,2.4c0,1.3-1.4,2.1-2,2.4    c-0.6,0.3-3.4,1-3.9,1.1c-0.5,0.1-1.4,0-1.3,1.2c0.1,1.2,1.6,1.3,2.2,1.6c0.6,0.3,4.4,1.4,5.1,2.2c0.7,0.7,2.3,1.8,3,2.9    c0.7,1.1,1.2,1.9,2.2,2.1c1,0.2,1.5-0.6,1.4-1.1c-0.1-0.5-0.5-2.5-0.8-3.2c-0.3-0.7-0.4-2.6,0-3.4c0.5-0.8,1.2-1.7,1.9-1.7    c0.7,0,1.6,0,2.1,0.7c0.5,0.7,1,1.8,0.7,3.4c-0.2,1.6-0.6,3.6-0.6,3.8c0,0.3,0.1,1.5,0.9,1.6c0.8,0,1.6-0.6,2.4-1.8    c0.8-1.2,3.3-3.7,4.2-4.1c0.9-0.4,4.3-1.8,5.2-1.9c0.9-0.1,1.2-1.1,1.1-1.5c-0.1-0.4,0-0.8-2.3-1.2c-2.2-0.4-4.5-1.3-4.8-2.4    c-0.3-1.1-0.9-2.6,1-3.4c1.6-0.6,3.1,0.2,3.6,0.5c0.4,0.3,2,1.8,2.3,2c0.3,0.3,1.2,1.1,1.9,0.6c0.6-0.5,0.6-1.3,0-2.4    c-0.6-1.1-2.1-3.4-2.6-5.1c-0.5-1.7-0.6-4.8-0.5-6c0.1-1.2,0.1-2.1-0.9-2.4c-1-0.3-1.5-0.2-1.8,0.4c-0.2,0.6-1.1,2.5-1.4,3.2    c-0.4,0.6-1.4,1.8-2.3,1.9c-0.9,0.1-1.9,0.3-2.7-0.9c-0.7-1.2,0-3,0.4-3.5c0.4-0.5,2.1-2.6,2.3-2.9c0.2-0.3,0.6-1.2-0.3-1.8    c-0.9-0.6-1.6-0.1-2.4,0.1c-0.8,0.2-3.3,0.9-4.1,0.9c-0.7,0-1.5,0.3-3.3,0c-1.8-0.3-3.6-1.3-4.8-1c-1.2,0.3-1.3,0.6-0.9,1.5    c0.4,0.9,1.7,1.4,2.4,2.5c0.6,1.1,1.3,2.5,0.7,3.7c-0.6,1.2-1.8,1.7-2.8,1.4c-1-0.3-1.9-1.2-2.2-2.1c-0.3-0.9-0.9-2.6-1.3-3    c-0.4-0.4-1.4-1-2.2-0.3c-0.8,0.7-0.6,1.9-0.6,2.7S40.8,125.5,40.8,126.2L40.8,126.2z"></path>
         <path fill="#FFFFFF" d="M43.1,128.3c1.1,0,5,0.1,6.6-1c1.6-1.1,2.2-1.9,2.8-2.9c0.6-1,1.2-2.8,1.4-3.4c0.2-0.6,0.1-1.2,1-1.2    c0.8,0,0.8,0.4,1,1.2c0.2,0.8,1.1,3.1,1.5,3.7c0.4,0.6,1.7,2.6,3.8,3.2c2.1,0.6,4,0.4,4.8,0.4c0.7,0,1.3-0.1,1.6,0    c0.2,0.1,0.6,0.3,0.5,0.9c-0.1,0.6-1.3,1.3-2,1.7c-0.7,0.4-3,1.9-3.3,3.1c-0.3,1.2-1.2,3-0.6,5.5c0.6,2.5,1.1,3.2,0.9,3.8    c-0.2,0.6,0,0.5-0.8,0.6c-0.8,0-0.8-0.3-1.2-0.7c-0.3-0.4-2.2-2.3-3.1-2.7c-0.9-0.4-2.5-1.2-3.8-0.7c-1.2,0.4-3.3,1.6-4.3,2.4    c-0.9,0.8-1.6,1.3-2,1.5c-0.4,0.2-1.1,0-1.1-0.8c0-0.8,0.9-3,1.2-3.8c0.3-0.8,0.2-2.8-0.4-4c-0.6-1.3-1.2-2.5-3.5-4.2    c-1.3-1-1.7-1-2.1-1.5c-0.3-0.3-0.1-0.7,0-0.9C42.2,128.3,42,128.2,43.1,128.3L43.1,128.3z"></path>
         <path fill-rule="evenodd" clip-rule="evenodd" fill="#E63312" d="M46.1,130c0,0,3.5,0.3,5.8-1.7c2.8-2.5,3-4.9,3-4.9    s0.5,2.6,2.4,4.5c2.5,2.4,6.3,2.3,6.3,2.3s-2.3,1.4-3.3,3.9c-1.2,2.9,0,6.1,0,6.1s-2.1-2.3-5.2-2.4c-3.6-0.1-5.4,2.1-5.4,2.1    s0.8-2.8,0-5.3C48.9,131.6,46.1,130,46.1,130L46.1,130z"></path>
         <path fill="#FFFFFF" d="M50.1,132.6c0-2.6,2.1-4.8,4.8-4.8c2.6,0,4.8,2.1,4.8,4.8c0,2.6-2.1,4.8-4.8,4.8    C52.2,137.3,50.1,135.2,50.1,132.6L50.1,132.6z"></path>
         <path fill="#E63312" d="M76.4,140.5l-1.9-2.4c0,0-0.8,0-1.8,0.3c-1.1,0.2-1.9,0-3.4-1c-1.4-1-3-2.5-3.8-2    c-0.8,0.5-0.8,1.2-0.1,1.6c1.2,0.8,3,1.1,4.4,1.6c1.4,0.5,2.1,1.2,2.1,1.2l1.4,1.9L76.4,140.5L76.4,140.5z"></path>
         <path fill="#E63312" d="M55.2,154.5l1.7-2.7c0,0-0.4-0.7-1-1.6c-0.7-0.9-0.9-1.7-0.5-3.5c0.3-1.7,1.1-3.8,0.2-4.3    c-0.8-0.5-1.4-0.2-1.5,0.5c-0.2,1.4,0.3,3.2,0.4,4.6c0.1,1.5-0.3,2.4-0.3,2.4l-1.1,2.1L55.2,154.5L55.2,154.5z"></path>
         <path fill="#E63312" d="M33.6,140.2l3.3,1.2c0,0,0.5-0.6,1.1-1.5c0.6-0.9,1.3-1.4,3-1.8c1.7-0.3,3.8-0.6,4-1.5    c0.2-1-0.2-1.2-0.9-1c-1.4,0.3-2.9,1.4-4.2,2.1c-1.3,0.6-2.3,0.6-2.3,0.6l-2.2-0.6L33.6,140.2L33.6,140.2z"></path>
         <path fill="#E63312" d="M41.9,115.3l0,3.2c0,0,0.7,0.4,1.7,0.8c1,0.4,1.7,1,2.3,2.6c0.6,1.6,0.6,3.1,1.6,3.1c1,0,1.3-0.5,1-1.2    c-0.6-1.3-1.5-1.9-2.3-3.1c-0.9-1.2-1.1-2.2-1.1-2.2l-0.1-2.3L41.9,115.3L41.9,115.3z"></path>
         <path fill="#E63312" d="M67.9,115.2l-2.9,1.3c0,0-0.1,0.8,0,1.9c0.1,1.1-0.3,1.9-1.5,3.2c-1.2,1.3-2.5,2.1-2.1,3    c0.4,0.9,1,1,1.5,0.4c1-1.1,1-2.3,1.8-3.6c0.7-1.3,1.6-1.9,1.6-1.9l2.1-1.1L67.9,115.2L67.9,115.2z"></path>
         <path fill="#E63312" d="M46.3,116.3c0,0,0.3-2.2,3-2c2.7,0.2,4.7,0.6,5.6,0.5c0.9,0,3.3-0.1,4.5-0.3c3.8-0.7,3.9,1.7,3.9,1.7    s-1-1.2-3.5-0.4c-3.4,1.2-7.4,0.9-9.3,0.2C48.4,115.3,46.3,116.3,46.3,116.3L46.3,116.3z"></path>
         <path fill-rule="evenodd" clip-rule="evenodd" fill="#E63312" d="M69.5,119.9c0,0,2.2-0.2,2.7,2.4c0.4,2.7,0.6,4.7,0.9,5.6    c0.3,0.9,0.9,3.2,1.4,4.3c1.6,3.5-0.7,4.2-0.7,4.2s0.9-1.3-0.5-3.5c-2-3-2.7-6.9-2.5-9C71,121.7,69.5,119.9,69.5,119.9L69.5,119.9    z"></path>
         <path fill="#E63312" d="M71.7,142.3c0,0,0.9,2-1.4,3.3c-2.4,1.3-4.3,2.3-5.1,2.9c-0.7,0.5-1.7,0.9-2.6,1.8c-2.8,2.7-4,1.3-4,1.3    s1.3-0.2,2.9-2.2c2.2-2.8,4.7-4.1,6.7-4.6C70.6,144.2,71.7,142.3,71.7,142.3L71.7,142.3z"></path>
         <path fill="#E63312" d="M38,142.5c0,0-0.9,1.6,1.5,2.8c2.4,1.2,4.2,2.4,5,3c0.8,0.5,1.9,1.2,2.8,2c2.8,2.6,4,1.3,4,1.3    s-1.3-0.2-2.9-2.2c-2.3-2.8-4.5-4.2-6.5-4.7C39.5,144.2,38,142.5,38,142.5L38,142.5z"></path>
         <path fill="#E63312" d="M35.7,136.1c0,0-1.4-1.1-0.6-3.7c0.9-2.5,1.8-4,1.9-4.9c0.2-0.9,0.7-3.2,0.8-4.4c0.2-3.9,2.6-3.4,2.6-3.4    s-1.4,0.7-1.2,3.3c0.3,3.6-0.9,7.4-2,9.1C35.9,134,35.7,136.1,35.7,136.1L35.7,136.1z"></path>
         <path fill="#E63312" d="M51.7,132.6c0-1.8,1.4-3.2,3.2-3.2c1.8,0,3.2,1.4,3.2,3.2c0,1.8-1.4,3.2-3.2,3.2    C53.1,135.8,51.7,134.4,51.7,132.6L51.7,132.6z"></path>
      </g>
      <g id="Ave_Maria">

            <path fill-rule="evenodd" clip-rule="evenodd" fill="#009FE3" stroke="#009FE3" stroke-width="0.3536" stroke-miterlimit="3.8637" d="    M6.8,134.2c0,0,7.6-6.9,11.2-15.3c3.6-8.4,19.5-47.1,19.5-47.1s-11.7,1.4-16.4,3c-4.7,1.6-9.5,3.6-9.5,3.6s1.3-6.3,1.3-11.5    c0-6.6-1.8-12.5-1.8-12.5s15.9,6.6,44.2,6.6c31.6,0,44.5-6.6,44.5-6.6s-1.8,2-2.2,10.8c-0.4,8.4,1,13.1,1,13.1s-11-4.3-15.6-5.1    c-4.6-0.7-9.2-1.5-9.2-1.5s20.6,48.4,21.3,50.2c0.7,1.8,3.7,6.6,4.6,7.8c0.9,1.2,4.1,4.5,4.1,4.5s-6.3,0.2-11.1,1.4    c-7,1.7-12.2,5.7-12.2,5.7s2.3-5.3,0.6-13.2c-1.3-5.9-12.4-41.2-12.4-41.2l-13.5,22.7l-13-22.7c0,0-11.5,38.7-11.7,40.7    c-0.3,1.9-1.3,5.6-1.2,8.5c0.1,2.9,0.7,5.3,0.7,5.3s-5.3-3.3-9.8-5.3C13.9,133.4,6.8,134.2,6.8,134.2L6.8,134.2z"></path>
         <path fill="#FFFFFF" d="M45.2,71.3c0,0,5.3-0.7,10-0.6c4.7,0.1,10.4,0.6,10.4,0.6L55.2,91.3L45.2,71.3L45.2,71.3z"></path>
      </g>
      <g id="Kronan">
         <polygon fill="#F7A600" stroke="#FBBA00" stroke-width="0.712" stroke-miterlimit="3.8637" points="1,3 4,3 4,5.4 7.7,5.4 7.7,3     10.4,3 10.4,5.4 14,5.4 14,3 17,3 17,8.5 15,8.5 15,16.9 26,16.9 26,8.5 23.9,8.5 23.9,3 26.9,3 26.9,5.4 30.5,5.4 30.5,3 33.3,3     33.3,5.4 36.9,5.4 36.9,3 39.9,3 39.9,8.5 38.1,8.5 38.1,16.9 49.1,16.9 49.1,8.5 46.7,8.5 46.7,3 49.8,3 49.8,5.4 53.4,5.4     53.4,3 56.2,3 56.2,5.4 59.8,5.4 59.8,3 62.8,3 62.8,8.5 61.3,8.5 61.3,16.9 72.2,16.9 72.2,8.5 70,8.5 70,3 73,3 73,5.4     76.6,5.4 76.6,3 79.5,3 79.5,5.4 83,5.4 83,3 86,3 86,8.5 84.3,8.5 84.3,16.9 95.2,16.9 95.2,8.5 93,8.5 93,3 96,3 96,5.4     99.6,5.4 99.6,3 102.5,3 102.5,5.4 106.1,5.4 106.1,3 109,3 109,8.5 107.3,8.5 107.3,18.2 102,24.6 102,37.2 105.1,37.2     105.1,43.5 5.3,43.5 5.3,37.2 8.5,37.2 8.5,24 2.9,16.9 2.9,8.5 1,8.5 1,3   "></polygon>
         <path id="Bana_1_" fill="none" stroke="#000000" stroke-width="1.4148" stroke-miterlimit="3.8637" d="M1,3h3v2.4h3.6V3h2.8v2.4    H14V3h3v5.5H1V3L1,3z M23.9,3h3v2.4h3.6V3h2.8v2.4h3.6V3h3v5.5h-16V3L23.9,3z M46.7,3h3v2.4h3.6V3h2.8v2.4h3.6V3h3v5.5h-16V3    L46.7,3z M70,3h3v2.4h3.6V3h2.8v2.4H83V3h3v5.5H70V3L70,3z M93,3h3v2.4h3.6V3h2.8v2.4h3.6V3h3v5.5H93V3L93,3z"></path>
         <polyline fill="none" stroke="#000000" stroke-width="2.1223" stroke-miterlimit="3.8637" points="3.3,8.5 3.3,17.3 8.5,24.2     8.5,37.2 5.3,37.2 5.3,43.5 105.1,43.5 105.1,37.2 102,37.2 102,24.7 107.4,18.2 107.4,8.5   "></polyline>
         <path fill="none" stroke="#000000" stroke-width="1.4148" stroke-miterlimit="3.8637" d="M2.9,8.5v8.3H15V8.5 M26,8.5v8.3h12.1    V8.5 M49.1,8.5v8.3h12.1V8.5 M72.2,8.5v8.3h12.1V8.5 M95.2,8.5v8.3h12.1V8.5 M107.4,16.9H3.1 M9,16.9v-4.7 M32.1,16.9v-4.7     M55.1,16.9v-4.7 M78.2,16.9v-4.7 M101.2,16.9v-4.7 M8.5,28.2H102 M102,37.6H8.5 M15.3,16.9l-6.8,7.1 M25.8,16.9l6.3,6.6V28v-4.4    l6.1-6.4 M49,16.9l6,6.6V28v-4.4l6.4-6.4 M72,17l6.1,6.4v4.4v-4.4l6.4-6.4 M94.9,17l7.1,7.3 M89.6,28.2v9.5 M66.6,28.2v9.5     M43.5,28.2v9.5 M20.5,28.2v9.5"></path>
      </g>
   </g>

</svg>